<?xml version="1.0" encoding="UTF-8" standalone="no"?>
<!-- Created with Inkscape (http://www.inkscape.org/) -->

<svg
   width="100mm"
   height="30mm"
   viewBox="0 0 100 30"
   version="1.1"
   id="svg5"
   xmlns="http://www.w3.org/2000/svg"
   xmlns:svg="http://www.w3.org/2000/svg">
  <defs
     id="defs2" />
  <g
     id="layer1">
    <path
       style="fill:#000000;stroke-width:0.264583"
       id="path1042"
       d="" />
    <path
       style="fill:#000000;stroke-width:0.264583"
       id="path1022"
       d="" />
    <path
       style="fill:#eeeee5;stroke-width:0.126576;fill-opacity:1"
       d="m 12.85034,27.940342 c -1.549273,-0.372686 -1.955104,-0.48487 -2.297506,-0.635106 -0.219373,-0.09625 -0.453353,-0.175007 -0.519958,-0.175007 -0.1806051,0 -1.7292081,-0.825106 -2.5442293,-1.355584 C 6.5674155,25.175039 4.7592301,23.356018 4.1197517,22.385562 3.2544011,21.072327 2.8236479,20.082711 2.1905654,17.953431 1.8446373,16.789955 1.8808509,13.367219 2.252839,12.067624 2.909349,9.7740103 3.488803,8.6375753 4.9168442,6.842931 6.4703516,4.8906113 8.9727159,3.312743 11.711152,2.5587726 c 0.877292,-0.2415443 5.324955,-0.2415443 6.202249,0 2.738435,0.7539704 5.2408,2.3318387 6.794307,4.2841584 1.428041,1.7946443 2.007495,2.9310793 2.664005,5.224693 0.371989,1.299595 0.408202,4.722331 0.06228,5.885807 -0.633084,2.12928 -1.063836,3.118896 -1.929186,4.432131 -0.639479,0.970456 -2.447665,2.789477 -3.368897,3.389083 -0.771128,0.501911 -2.360278,1.355584 -2.523473,1.355584 -0.05519,0 -0.260691,0.06612 -0.45667,0.146924 -1.161991,0.479128 -2.052248,0.628504 -4.027043,0.675692 -1.113874,0.02661 -2.139144,0.02099 -2.278378,-0.0125 z m 1.125646,-1.643214 c 0.04226,-0.110122 0.07683,-1.308857 0.07683,-2.663859 0,-2.865543 0.186069,-2.465666 -1.818346,-3.907766 -0.677336,-0.48732 -1.825236,-1.327471 -2.5508861,-1.867004 -0.725649,-0.539532 -1.398092,-0.980968 -1.494314,-0.980968 -0.096223,0 -1.0377071,0.42676 -2.092185,0.948355 -2.2156507,1.095968 -2.1814387,1.040305 -1.4738116,2.397902 1.1506285,2.207501 2.9131178,3.964153 5.0626566,5.045884 1.0705761,0.538755 1.4869551,0.68814 2.7213951,0.976355 1.22693,0.286462 1.475243,0.294552 1.568663,0.0511 z m 2.98809,0.0051 c 2.161776,-0.443749 4.001748,-1.390503 5.72096,-2.943706 1.128868,-1.019864 2.809977,-3.677531 2.733651,-4.32163 -0.03164,-0.267033 -0.313213,-0.453865 -1.864221,-1.236972 -1.004823,-0.507336 -1.898892,-0.92243 -1.986822,-0.92243 -0.08793,0 -0.847257,0.498396 -1.687392,1.107545 -0.840134,0.609149 -1.911164,1.37805 -2.380067,1.708667 -0.468903,0.330619 -1.094627,0.803369 -1.390499,1.050556 l -0.53795,0.449433 v 2.45159 c 0,1.348374 0.03457,2.541688 0.07683,2.651806 0.09455,0.246405 0.139318,0.24658 1.31551,0.0051 z m 1.178823,-8.942563 c 1.266117,-0.918295 2.786187,-2.023907 3.377932,-2.456919 0.591745,-0.433011 1.588536,-1.157868 2.215088,-1.610792 1.956609,-1.414399 1.871842,-1.325139 1.783435,-1.878 -0.100137,-0.626275 -0.974551,-2.3079347 -1.22514,-2.3561927 -0.151791,-0.02923 -1.733277,1.0361247 -2.013924,1.3566667 -0.03481,0.03976 -0.514492,0.413741 -1.065962,0.831075 -1.335514,1.010671 -2.487447,1.89461 -3.420237,2.624525 -0.421699,0.329983 -1.034163,0.785659 -1.361032,1.012612 -0.326869,0.226954 -0.654385,0.543481 -0.727815,0.703396 -0.229181,0.499103 -0.162583,3.443254 0.07789,3.443254 0.03175,0 1.093649,-0.751332 2.359769,-1.669625 z m -4.166913,1.342831 c 0.103517,-0.269751 0.0812,-2.845196 -0.02699,-3.117122 -0.13368,-0.335962 -8.3509177,-6.5791737 -8.5970365,-6.5317747 -0.2672994,0.05148 -1.1423306,1.7073457 -1.2465077,2.3588347 -0.086797,0.5428 -0.3395546,0.307568 2.6080395,2.427219 0.6292637,0.452511 1.6124486,1.168903 2.1848586,1.591981 0.572408,0.423078 1.3255391,0.969829 1.6736251,1.215002 0.348085,0.245174 1.199905,0.853089 1.89293,1.350924 0.693026,0.497834 1.299247,0.905153 1.347157,0.905153 0.04791,0 0.121675,-0.0901 0.163936,-0.200217 z M 5.0248253,16.648673 c 1.1083457,-0.539421 1.5599782,-0.806756 1.5599782,-0.9234 0,-0.139624 -2.6704284,-2.043009 -2.88946,-2.059503 -0.1869613,-0.01408 -0.2116644,0.161333 -0.2116644,1.502978 0,1.604091 0.066818,1.961936 0.3663412,1.961936 0.101432,0 0.6300941,-0.216904 1.174805,-0.482011 z m 21.0665987,0.10228 c 0.04812,-0.174043 0.09319,-0.902064 0.100125,-1.617824 0.0099,-1.023669 -0.02623,-1.316289 -0.169429,-1.371239 -0.282303,-0.108324 -2.905967,1.762633 -2.822575,2.01281 0.06848,0.205428 2.276906,1.342304 2.556414,1.316016 0.145747,-0.01371 0.284034,-0.153766 0.335468,-0.339763 z m -12.063721,-4.75688 c 0.05329,-1.752574 0.004,-1.899808 -0.909161,-2.7111337 C 12.687628,8.9000473 11.604595,7.9317373 10.711798,7.1311402 9.8189999,6.3305442 9.0169559,5.6342191 8.9294759,5.5837518 8.7354669,5.4718269 7.909977,6.010197 6.964533,6.8652532 6.2689025,7.494379 6.2685585,7.4950625 6.5215151,7.7462625 c 0.536931,0.5332048 7.2215759,5.5800685 7.3414369,5.5427385 0.06973,-0.02172 0.143724,-0.603341 0.164751,-1.294925 z m 5.509528,-1.393097 c 1.961193,-1.5028257 3.615821,-2.820871 3.676952,-2.9289912 0.08155,-0.1442376 -0.0027,-0.3032581 -0.316442,-0.5972242 -0.677369,-0.634685 -2.037805,-1.6493179 -2.44955,-1.8269074 -0.422177,-0.1820888 -0.393906,-0.2062935 -2.422314,2.0738969 -1.854132,2.0842802 -2.230533,2.5383362 -2.340879,2.8238219 -0.130635,0.337984 -0.155193,2.977117 -0.02888,3.103432 0.04642,0.04642 0.136342,0.08439 0.199846,0.08439 0.0635,0 1.720073,-1.229585 3.681265,-2.73241 z M 16.671001,6.5615461 C 17.593689,5.5172902 18.336133,4.5835646 18.320873,4.4866007 18.284031,4.2524973 18.061359,4.1524143 17.153941,3.9621084 15.759497,3.6696621 14.1155,3.6676544 12.723763,3.9566984 c -1.53123,0.3180142 -2.290268,0.5791164 -2.243512,0.7717482 0.01918,0.079002 0.360933,0.4427744 0.759459,0.808384 0.398527,0.365609 1.29419,1.1868438 1.99036,1.8249669 0.826115,0.7572298 1.352175,1.1494848 1.51454,1.1293098 0.13919,-0.01729 0.987773,-0.8672749 1.926391,-1.92956 z"
       id="path1375" />
    <text
       xml:space="preserve"
       style="font-style:normal;font-variant:normal;font-weight:normal;font-stretch:normal;font-size:15.3975px;line-height:1.25;font-family:Roboto;-inkscape-font-specification:Roboto;stroke-width:1.15482"
       x="30.648441"
       y="16.260744"
       id="text5117"><tspan
         id="tspan5115"
         style="font-style:normal;font-variant:normal;font-weight:normal;font-stretch:normal;font-family:Roboto;-inkscape-font-specification:Roboto;fill:#c7b98d;fill-opacity:1;stroke-width:1.15482"
         x="30.648441"
         y="16.260744">STOLARZ</tspan></text>
    <text
       xml:space="preserve"
       style="font-size:6.49666px;line-height:1.25;font-family:'DejaVu Serif';-inkscape-font-specification:'DejaVu Serif';fill:#eeeee5;fill-opacity:1;stroke-width:0.487249"
       x="30.657217"
       y="24.924824"
       id="text15745"><tspan
         id="tspan15743"
         style="font-style:normal;font-variant:normal;font-weight:normal;font-stretch:normal;font-family:Roboto;-inkscape-font-specification:Roboto;fill:#eeeee5;fill-opacity:1;stroke-width:0.487249"
         x="30.657217"
         y="24.924824">PIOTR JĘDRZEJEWSKI</tspan></text>
  </g>
</svg>
